<svg width="1024" height="1024" viewBox="0 0 1024 1024" fill="none" xmlns="http://www.w3.org/2000/svg">
<rect width="1024" height="1024" fill="white"/>
<path d="M356.963 207.557C256.661 221.953 200.889 315.873 194.672 387.086C156.838 422.374 163.545 463.125 179.084 485.199C129.555 585.67 212.095 663.682 285.445 663.682C345.135 663.682 361.549 655.333 377.137 649.072C401.893 637.59 399.84 621.99 400.976 640.72C402.113 659.451 391.807 829.643 391.807 862C407.395 855.737 599.941 660.552 606.362 664.728C612.781 668.904 634.786 681.427 648.539 682.471C662.292 683.516 689.798 677.254 701.719 649.072C713.642 620.889 706.303 606.276 708.138 604.189C709.972 602.103 752.149 614.626 796.16 596.883C840.172 579.138 936.19 433.534 759.483 323.415C759.295 230.865 613.944 127.685 504.585 178.331C496.116 154.493 433.237 153.276 356.963 207.557Z" fill="url(#paint0_radial_160_38)"/>
<g filter="url(#filter0_d_160_38)">
<path d="M354.08 261.902V463.879" stroke="#F8FEF5" stroke-width="2.3561"/>
</g>
<g filter="url(#filter1_d_160_38)">
<path d="M504.321 222.81L483.067 363.977L373.098 251.453" stroke="#F8FEF5" stroke-width="2.3561"/>
</g>
<g filter="url(#filter2_d_160_38)">
<path d="M504.019 220.638L517.83 280.986L610.821 342.357L494.812 379.179" stroke="#F8FEF5" stroke-width="2.3561"/>
</g>
<g filter="url(#filter3_d_160_38)">
<path d="M652.662 331.4L738.243 324.884" stroke="#F8FEF5" stroke-width="2.3561"/>
</g>
<g filter="url(#filter4_d_160_38)">
<path d="M633.644 366.148L556.104 484.24L440.249 481.186L358.147 484.24L284.256 561.61L205.804 493.402H184.822" stroke="#F8FEF5" stroke-width="2.3561"/>
</g>
<g filter="url(#filter5_d_160_38)">
<path d="M207.643 492.112L348.375 483.425" stroke="#F8FEF5" stroke-width="2.3561"/>
</g>
<g filter="url(#filter6_d_160_38)">
<path d="M281.811 574.641L273.626 599.227L198.133 628.935" stroke="#F8FEF5" stroke-width="2.3561"/>
</g>
<g filter="url(#filter7_d_160_38)">
<path d="M293.76 566.707L399.898 633.989" stroke="#F8FEF5" stroke-width="2.3561"/>
</g>
<g filter="url(#filter8_d_160_38)">
<path d="M428.251 502.971L397.822 637.622" stroke="#F8FEF5" stroke-width="2.3561"/>
</g>
<g filter="url(#filter9_d_160_38)">
<path d="M561.375 496.984L565.96 587.671L742.045 523.182L631.992 363.977" stroke="#F8FEF5" stroke-width="2.3561"/>
</g>
<g filter="url(#filter10_d_160_38)">
<path d="M475.795 383.522L441.562 474.738" stroke="#F8FEF5" stroke-width="2.3561"/>
</g>
<path d="M353.129 264.074C368.358 264.074 380.705 250.948 380.705 234.755C380.705 218.563 368.358 205.436 353.129 205.436C337.899 205.436 325.553 218.563 325.553 234.755C325.553 250.948 337.899 264.074 353.129 264.074Z" fill="#F8FEF5"/>
<path d="M506.224 222.81C521.979 222.81 534.751 209.197 534.751 192.405C534.751 175.613 521.979 162 506.224 162C490.469 162 477.697 175.613 477.697 192.405C477.697 209.197 490.469 222.81 506.224 222.81Z" fill="#F8FEF5"/>
<path d="M762.014 359.633C779.345 359.633 793.394 344.076 793.394 324.884C793.394 305.693 779.345 290.136 762.014 290.136C744.684 290.136 730.635 305.693 730.635 324.884C730.635 344.076 744.684 359.633 762.014 359.633Z" fill="#F8FEF5"/>
<path d="M635.546 370.492C651.301 370.492 664.073 356.879 664.073 340.087C664.073 323.294 651.301 309.682 635.546 309.682C619.791 309.682 607.02 323.294 607.02 340.087C607.02 356.879 619.791 370.492 635.546 370.492Z" fill="#F8FEF5"/>
<path d="M752.506 548.579C767.735 548.579 780.082 535.453 780.082 519.26C780.082 503.068 767.735 489.941 752.506 489.941C737.276 489.941 724.93 503.068 724.93 519.26C724.93 535.453 737.276 548.579 752.506 548.579Z" fill="#F8FEF5"/>
<path d="M566.13 600.702C578.209 600.702 588.001 590.979 588.001 578.984C588.001 566.99 578.209 557.266 566.13 557.266C554.052 557.266 544.26 566.99 544.26 578.984C544.26 590.979 554.052 600.702 566.13 600.702Z" fill="#F8FEF5"/>
<path d="M560.426 509.487C575.655 509.487 588.001 496.847 588.001 481.254C588.001 465.661 575.655 453.021 560.426 453.021C545.196 453.021 532.85 465.661 532.85 481.254C532.85 496.847 545.196 509.487 560.426 509.487Z" fill="#F8FEF5"/>
<path d="M483.401 398.725C492.854 398.725 500.517 390.46 500.517 380.265C500.517 370.07 492.854 361.805 483.401 361.805C473.948 361.805 466.285 370.07 466.285 380.265C466.285 390.46 473.948 398.725 483.401 398.725Z" fill="#F8FEF5"/>
<path d="M355.982 494.284C364.384 494.284 371.196 486.506 371.196 476.91C371.196 467.314 364.384 459.536 355.982 459.536C347.579 459.536 340.768 467.314 340.768 476.91C340.768 486.506 347.579 494.284 355.982 494.284Z" fill="#F8FEF5"/>
<path d="M435.857 509.487C448.461 509.487 458.678 498.305 458.678 484.511C458.678 470.718 448.461 459.536 435.857 459.536C423.253 459.536 413.035 470.718 413.035 484.511C413.035 498.305 423.253 509.487 435.857 509.487Z" fill="#F8FEF5"/>
<path d="M286.567 581.156C296.545 581.156 304.634 572.405 304.634 561.61C304.634 550.815 296.545 542.063 286.567 542.063C276.589 542.063 268.5 550.815 268.5 561.61C268.5 572.405 276.589 581.156 286.567 581.156Z" fill="#F8FEF5"/>
<path d="M177.214 505.143C185.617 505.143 192.429 497.851 192.429 488.855C192.429 479.859 185.617 472.566 177.214 472.566C168.812 472.566 162 479.859 162 488.855C162 497.851 168.812 505.143 177.214 505.143Z" fill="#F8FEF5"/>
<defs>
<filter id="filter0_d_160_38" x="349.761" y="261.902" width="8.6384" height="208.259" filterUnits="userSpaceOnUse" color-interpolation-filters="sRGB">
<feFlood flood-opacity="0" result="BackgroundImageFix"/>
<feColorMatrix in="SourceAlpha" type="matrix" values="0 0 0 0 0 0 0 0 0 0 0 0 0 0 0 0 0 0 127 0" result="hardAlpha"/>
<feOffset dy="3.14146"/>
<feGaussianBlur stdDeviation="1.57073"/>
<feComposite in2="hardAlpha" operator="out"/>
<feColorMatrix type="matrix" values="0 0 0 0 0.828846 0 0 0 0 0.619749 0 0 0 0 0.0908543 0 0 0 0.27 0"/>
<feBlend mode="normal" in2="BackgroundImageFix" result="effect1_dropShadow_160_38"/>
<feBlend mode="normal" in="SourceGraphic" in2="effect1_dropShadow_160_38" result="shape"/>
</filter>
<filter id="filter1_d_160_38" x="369.114" y="222.635" width="139.513" height="150.141" filterUnits="userSpaceOnUse" color-interpolation-filters="sRGB">
<feFlood flood-opacity="0" result="BackgroundImageFix"/>
<feColorMatrix in="SourceAlpha" type="matrix" values="0 0 0 0 0 0 0 0 0 0 0 0 0 0 0 0 0 0 127 0" result="hardAlpha"/>
<feOffset dy="3.14146"/>
<feGaussianBlur stdDeviation="1.57073"/>
<feComposite in2="hardAlpha" operator="out"/>
<feColorMatrix type="matrix" values="0 0 0 0 0.828846 0 0 0 0 0.619749 0 0 0 0 0.0908543 0 0 0 0.27 0"/>
<feBlend mode="normal" in2="BackgroundImageFix" result="effect1_dropShadow_160_38"/>
<feBlend mode="normal" in="SourceGraphic" in2="effect1_dropShadow_160_38" result="shape"/>
</filter>
<filter id="filter2_d_160_38" x="491.316" y="220.375" width="125.355" height="166.209" filterUnits="userSpaceOnUse" color-interpolation-filters="sRGB">
<feFlood flood-opacity="0" result="BackgroundImageFix"/>
<feColorMatrix in="SourceAlpha" type="matrix" values="0 0 0 0 0 0 0 0 0 0 0 0 0 0 0 0 0 0 127 0" result="hardAlpha"/>
<feOffset dy="3.14146"/>
<feGaussianBlur stdDeviation="1.57073"/>
<feComposite in2="hardAlpha" operator="out"/>
<feColorMatrix type="matrix" values="0 0 0 0 0.828846 0 0 0 0 0.619749 0 0 0 0 0.0908543 0 0 0 0.27 0"/>
<feBlend mode="normal" in2="BackgroundImageFix" result="effect1_dropShadow_160_38"/>
<feBlend mode="normal" in="SourceGraphic" in2="effect1_dropShadow_160_38" result="shape"/>
</filter>
<filter id="filter3_d_160_38" x="649.431" y="323.709" width="92.0427" height="15.1477" filterUnits="userSpaceOnUse" color-interpolation-filters="sRGB">
<feFlood flood-opacity="0" result="BackgroundImageFix"/>
<feColorMatrix in="SourceAlpha" type="matrix" values="0 0 0 0 0 0 0 0 0 0 0 0 0 0 0 0 0 0 127 0" result="hardAlpha"/>
<feOffset dy="3.14146"/>
<feGaussianBlur stdDeviation="1.57073"/>
<feComposite in2="hardAlpha" operator="out"/>
<feColorMatrix type="matrix" values="0 0 0 0 0.828846 0 0 0 0 0.619749 0 0 0 0 0.0908543 0 0 0 0.27 0"/>
<feBlend mode="normal" in2="BackgroundImageFix" result="effect1_dropShadow_160_38"/>
<feBlend mode="normal" in="SourceGraphic" in2="effect1_dropShadow_160_38" result="shape"/>
</filter>
<filter id="filter4_d_160_38" x="181.681" y="365.502" width="456.09" height="204.017" filterUnits="userSpaceOnUse" color-interpolation-filters="sRGB">
<feFlood flood-opacity="0" result="BackgroundImageFix"/>
<feColorMatrix in="SourceAlpha" type="matrix" values="0 0 0 0 0 0 0 0 0 0 0 0 0 0 0 0 0 0 127 0" result="hardAlpha"/>
<feOffset dy="3.14146"/>
<feGaussianBlur stdDeviation="1.57073"/>
<feComposite in2="hardAlpha" operator="out"/>
<feColorMatrix type="matrix" values="0 0 0 0 0.828846 0 0 0 0 0.619749 0 0 0 0 0.0908543 0 0 0 0.27 0"/>
<feBlend mode="normal" in2="BackgroundImageFix" result="effect1_dropShadow_160_38"/>
<feBlend mode="normal" in="SourceGraphic" in2="effect1_dropShadow_160_38" result="shape"/>
</filter>
<filter id="filter5_d_160_38" x="204.429" y="482.249" width="147.16" height="17.3215" filterUnits="userSpaceOnUse" color-interpolation-filters="sRGB">
<feFlood flood-opacity="0" result="BackgroundImageFix"/>
<feColorMatrix in="SourceAlpha" type="matrix" values="0 0 0 0 0 0 0 0 0 0 0 0 0 0 0 0 0 0 127 0" result="hardAlpha"/>
<feOffset dy="3.14146"/>
<feGaussianBlur stdDeviation="1.57073"/>
<feComposite in2="hardAlpha" operator="out"/>
<feColorMatrix type="matrix" values="0 0 0 0 0.828846 0 0 0 0 0.619749 0 0 0 0 0.0908543 0 0 0 0.27 0"/>
<feBlend mode="normal" in2="BackgroundImageFix" result="effect1_dropShadow_160_38"/>
<feBlend mode="normal" in="SourceGraphic" in2="effect1_dropShadow_160_38" result="shape"/>
</filter>
<filter id="filter6_d_160_38" x="194.56" y="574.269" width="91.5114" height="62.0461" filterUnits="userSpaceOnUse" color-interpolation-filters="sRGB">
<feFlood flood-opacity="0" result="BackgroundImageFix"/>
<feColorMatrix in="SourceAlpha" type="matrix" values="0 0 0 0 0 0 0 0 0 0 0 0 0 0 0 0 0 0 127 0" result="hardAlpha"/>
<feOffset dy="3.14146"/>
<feGaussianBlur stdDeviation="1.57073"/>
<feComposite in2="hardAlpha" operator="out"/>
<feColorMatrix type="matrix" values="0 0 0 0 0.828846 0 0 0 0 0.619749 0 0 0 0 0.0908543 0 0 0 0.27 0"/>
<feBlend mode="normal" in2="BackgroundImageFix" result="effect1_dropShadow_160_38"/>
<feBlend mode="normal" in="SourceGraphic" in2="effect1_dropShadow_160_38" result="shape"/>
</filter>
<filter id="filter7_d_160_38" x="289.987" y="565.712" width="113.683" height="75.5554" filterUnits="userSpaceOnUse" color-interpolation-filters="sRGB">
<feFlood flood-opacity="0" result="BackgroundImageFix"/>
<feColorMatrix in="SourceAlpha" type="matrix" values="0 0 0 0 0 0 0 0 0 0 0 0 0 0 0 0 0 0 127 0" result="hardAlpha"/>
<feOffset dy="3.14146"/>
<feGaussianBlur stdDeviation="1.57073"/>
<feComposite in2="hardAlpha" operator="out"/>
<feColorMatrix type="matrix" values="0 0 0 0 0.828846 0 0 0 0 0.619749 0 0 0 0 0.0908543 0 0 0 0.27 0"/>
<feBlend mode="normal" in2="BackgroundImageFix" result="effect1_dropShadow_160_38"/>
<feBlend mode="normal" in="SourceGraphic" in2="effect1_dropShadow_160_38" result="shape"/>
</filter>
<filter id="filter8_d_160_38" x="393.532" y="502.711" width="39.0095" height="141.453" filterUnits="userSpaceOnUse" color-interpolation-filters="sRGB">
<feFlood flood-opacity="0" result="BackgroundImageFix"/>
<feColorMatrix in="SourceAlpha" type="matrix" values="0 0 0 0 0 0 0 0 0 0 0 0 0 0 0 0 0 0 127 0" result="hardAlpha"/>
<feOffset dy="3.14146"/>
<feGaussianBlur stdDeviation="1.57073"/>
<feComposite in2="hardAlpha" operator="out"/>
<feColorMatrix type="matrix" values="0 0 0 0 0.828846 0 0 0 0 0.619749 0 0 0 0 0.0908543 0 0 0 0.27 0"/>
<feBlend mode="normal" in2="BackgroundImageFix" result="effect1_dropShadow_160_38"/>
<feBlend mode="normal" in="SourceGraphic" in2="effect1_dropShadow_160_38" result="shape"/>
</filter>
<filter id="filter9_d_160_38" x="557.058" y="363.307" width="189.963" height="232.303" filterUnits="userSpaceOnUse" color-interpolation-filters="sRGB">
<feFlood flood-opacity="0" result="BackgroundImageFix"/>
<feColorMatrix in="SourceAlpha" type="matrix" values="0 0 0 0 0 0 0 0 0 0 0 0 0 0 0 0 0 0 127 0" result="hardAlpha"/>
<feOffset dy="3.14146"/>
<feGaussianBlur stdDeviation="1.57073"/>
<feComposite in2="hardAlpha" operator="out"/>
<feColorMatrix type="matrix" values="0 0 0 0 0.828846 0 0 0 0 0.619749 0 0 0 0 0.0908543 0 0 0 0.27 0"/>
<feBlend mode="normal" in2="BackgroundImageFix" result="effect1_dropShadow_160_38"/>
<feBlend mode="normal" in="SourceGraphic" in2="effect1_dropShadow_160_38" result="shape"/>
</filter>
<filter id="filter10_d_160_38" x="437.318" y="383.108" width="42.7224" height="98.3264" filterUnits="userSpaceOnUse" color-interpolation-filters="sRGB">
<feFlood flood-opacity="0" result="BackgroundImageFix"/>
<feColorMatrix in="SourceAlpha" type="matrix" values="0 0 0 0 0 0 0 0 0 0 0 0 0 0 0 0 0 0 127 0" result="hardAlpha"/>
<feOffset dy="3.14146"/>
<feGaussianBlur stdDeviation="1.57073"/>
<feComposite in2="hardAlpha" operator="out"/>
<feColorMatrix type="matrix" values="0 0 0 0 0.828846 0 0 0 0 0.619749 0 0 0 0 0.0908543 0 0 0 0.27 0"/>
<feBlend mode="normal" in2="BackgroundImageFix" result="effect1_dropShadow_160_38"/>
<feBlend mode="normal" in="SourceGraphic" in2="effect1_dropShadow_160_38" result="shape"/>
</filter>
<radialGradient id="paint0_radial_160_38" cx="0" cy="0" r="1" gradientTransform="matrix(656.502 157.609 -138.452 747.337 213.928 401.698)" gradientUnits="userSpaceOnUse">
<stop offset="0.0865385" stop-color="#FFC327"/>
<stop offset="0.240385" stop-color="#FCB732"/>
<stop offset="0.355769" stop-color="#C7AC27"/>
<stop offset="0.456731" stop-color="#34B721"/>
<stop offset="0.620192" stop-color="#2AA0B2"/>
<stop offset="0.697115" stop-color="#5089BD"/>
<stop offset="0.875" stop-color="#8221D6"/>
</radialGradient>
</defs>
</svg>
